Coordinates
version=1
nRows=13
nColumns=40
inDegrees=yes

Units are S.I. units (second, meters, Newtons, ...)
If the header above contains a line with 'inDegrees', this indicates whether rotational values are in degrees (yes) or radians (no).

endheader
time	pelvis_tilt	pelvis_list	pelvis_rotation	pelvis_tx	pelvis_ty	pelvis_tz	hip_flexion_r	hip_adduction_r	hip_rotation_r	knee_angle_r	knee_angle_r_beta	ankle_angle_r	subtalar_angle_r	mtp_angle_r	hip_flexion_l	hip_adduction_l	hip_rotation_l	knee_angle_l	knee_angle_l_beta	ankle_angle_l	subtalar_angle_l	mtp_angle_l	lumbar_extension	lumbar_bending	lumbar_rotation	arm_flex_r	arm_add_r	arm_rot_r	elbow_flex_r	pro_sup_r	wrist_flex_r	wrist_dev_r	arm_flex_l	arm_add_l	arm_rot_l	elbow_flex_l	pro_sup_l	wrist_flex_l	wrist_dev_l
      0.00000000	     18.13672015	      4.40926376	      4.86196565	     -0.04320784	      0.96867750	     -0.36753199	      6.07284441	     -6.23448783	     -9.45322288	     19.70726077	      0.34395659	    -10.43448810	      0.00000000	      0.00000000	    -28.74744506	      6.68048691	      6.74924819	      7.52231546	      0.13128917	     -4.04604273	      0.00000000	      0.00000000	    -33.20353976	     -1.13155657	     -9.94064604	     -1.14820126	    -12.79735392	      2.79133701	     39.70642327	     74.21441607	      0.00000000	      0.00000000	     11.82587480	    -27.06242383	     26.79135541	     54.76364566	     73.00644335	      0.00000000	      0.00000000
      0.00400000	     17.95591265	      4.49648624	      4.73110590	     -0.03883170	      0.96736698	     -0.36730869	      6.71262662	     -6.30200800	     -9.79824685	     19.17104416	      0.33459784	    -10.33575032	      0.00000000	      0.00000000	    -28.86430433	      6.81282386	      6.68758570	      7.51690047	      0.13119466	     -3.92994803	      0.00000000	      0.00000000	    -33.11352901	     -1.27578675	     -9.89257325	     -1.06539313	    -12.79592662	      2.79888843	     39.69391559	     74.24073026	      0.00000000	      0.00000000	     12.01252982	    -27.04338473	     26.76987150	     54.87733108	     73.04313152	      0.00000000	      0.00000000
      0.00800000	     17.64704111	      4.60620412	      4.83351586	     -0.03418919	      0.96606496	     -0.36718094	      7.14960112	     -6.31002161	     -9.93056962	     17.97736653	      0.31376424	    -10.81999780	      0.00000000	      0.00000000	    -28.81042078	      6.85600386	      6.83409773	      7.66541444	      0.13378672	     -3.58741632	      0.00000000	      0.00000000	    -32.84065343	     -1.36321636	    -10.03811461	     -0.98912424	    -12.67720319	      2.71881960	     39.47058406	     74.40801593	      0.00000000	      0.00000000	     12.14443459	    -27.02659601	     26.77965966	     54.83362738	     73.24618075	      0.00000000	      0.00000000
      0.01200000	     17.48169792	      4.63479363	      4.69646006	     -0.02965831	      0.96474562	     -0.36706158	      7.60903412	     -6.26056465	    -10.01162111	     17.09199327	      0.29831156	    -11.06076667	      0.00000000	      0.00000000	    -28.87240351	      6.94373527	      6.65031651	      7.82241021	      0.13652681	     -3.29401132	      0.00000000	      0.00000000	    -32.71423917	     -1.44255453	     -9.98485514	     -1.08882592	    -12.71791957	      2.82225709	     39.76710294	     74.43072783	      0.00000000	      0.00000000	     12.27216622	    -26.96749283	     26.75497391	     54.86502033	     73.45260993	      0.00000000	      0.00000000
      0.01600000	     17.32503317	      4.63080651	      4.63966220	     -0.02520843	      0.96352318	     -0.36660988	      8.01179272	     -6.10618598	    -10.03439709	     16.15691412	      0.28199135	    -11.33049883	      0.00000000	      0.00000000	    -28.92818943	      6.91927330	      6.52339160	      8.00368889	      0.13969072	     -2.98392554	      0.00000000	      0.00000000	    -32.63117989	     -1.48635468	     -9.96197920	     -0.96484819	    -12.61747122	      2.75603515	     39.62667012	     74.49399326	      0.00000000	      0.00000000	     12.42619015	    -26.96528935	     26.69652149	     54.91746854	     73.60075283	      0.00000000	      0.00000000
      0.02000000	     17.11063991	      4.72486457	      4.61778967	     -0.02082167	      0.96230865	     -0.36627370	      8.50019270	     -6.10108571	    -10.02673671	     15.33603106	      0.26766424	    -11.55014806	      0.00000000	      0.00000000	    -28.92023690	      6.98451916	      6.47067336	      8.18079506	      0.14278181	     -2.76318606	      0.00000000	      0.00000000	    -32.49795300	     -1.60008763	     -9.98351727	     -0.59301974	    -12.48828596	      2.62593749	     38.97884765	     74.56167225	      0.00000000	      0.00000000	     12.63111690	    -26.94841714	     26.71875804	     54.87850585	     73.68551911	      0.00000000	      0.00000000
      0.02400000	     16.91579998	      4.80464633	      4.51068857	     -0.01600327	      0.96088611	     -0.36613121	      8.99951213	     -6.10438953	    -10.18324374	     14.67331899	      0.25609773	    -11.48890192	      0.00000000	      0.00000000	    -28.99027705	      7.09778366	      6.40206816	      8.30444867	      0.14493997	     -2.60868283	      0.00000000	      0.00000000	    -32.31807403	     -1.72156244	     -9.96042063	     -0.77601962	    -12.54265368	      2.82612822	     39.28485684	     74.57830068	      0.00000000	      0.00000000	     12.67181248	    -26.93027395	     26.70015660	     55.01544715	     73.72551798	      0.00000000	      0.00000000
      0.02800000	     16.79310356	      4.76878821	      4.40860049	     -0.01164895	      0.95972285	     -0.36569643	      9.20687958	     -5.84075471	     -9.69185831	     13.45411958	      0.23481868	    -12.03560929	      0.00000000	      0.00000000	    -28.99578533	      7.07228116	      6.27328355	      8.66932248	      0.15130822	     -2.17992854	      0.00000000	      0.00000000	    -32.28794314	     -1.73857976	     -9.88784064	     -0.65656178	    -12.51377495	      2.86512948	     39.27410435	     74.58776423	      0.00000000	      0.00000000	     12.83394302	    -26.90467707	     26.62308994	     55.04117222	     73.87038903	      0.00000000	      0.00000000
      0.03200000	     16.63193508	      4.83910012	      4.36242274	     -0.00709962	      0.95849050	     -0.36551985	      9.52743326	     -5.77773068	     -9.46687257	     12.55871402	      0.21919091	    -12.19441914	      0.00000000	      0.00000000	    -29.02246910	      7.13123840	      6.20058777	      8.90936598	      0.15549777	     -1.96516562	      0.00000000	      0.00000000	    -32.18463290	     -1.81754140	     -9.88511842	     -0.52640956	    -12.48704891	      2.91131565	     39.10267631	     74.54811912	      0.00000000	      0.00000000	     13.01799462	    -26.85821406	     26.65656920	     54.98505163	     73.93616235	      0.00000000	      0.00000000
      0.03600000	     16.46465902	      4.86203217	      4.34940547	     -0.00233063	      0.95733673	     -0.36500036	      9.75219569	     -5.64369014	     -9.04168828	     11.50417300	      0.20078570	    -12.40530439	      0.00000000	      0.00000000	    -29.01597879	      7.10112793	      6.07888052	      9.21579430	      0.16084595	     -1.72946251	      0.00000000	      0.00000000	    -32.08320271	     -1.86931396	     -9.87359770	     -0.16443728	    -12.37877089	      2.84247726	     38.44919899	     74.70274168	      0.00000000	      0.00000000	     13.12376233	    -26.89190739	     26.67173000	     55.04391240	     74.03672929	      0.00000000	      0.00000000
      0.04000000	     16.34743297	      4.86938072	      4.18889988	      0.00214595	      0.95602475	     -0.36480292	     10.11563974	     -5.51302026	     -8.79873994	     10.82154183	      0.18887154	    -12.62240571	      0.00000000	      0.00000000	    -29.06365243	      7.16242758	      5.98617724	      9.51429124	      0.16605571	     -1.43670700	      0.00000000	      0.00000000	    -32.01142179	     -1.93426748	     -9.75109131	     -0.26550576	    -12.43293650	      2.99371193	     38.77614643	     74.69166769	      0.00000000	      0.00000000	     13.28164300	    -26.79883259	     26.66576278	     55.02873105	     74.11644543	      0.00000000	      0.00000000
      0.04400000	     16.15123578	      4.90669293	      4.13169773	      0.00698713	      0.95481686	     -0.36431075	     10.52183179	     -5.42255793	     -8.57785721	     10.22612393	      0.17847953	    -12.61852214	      0.00000000	      0.00000000	    -29.07224347	      7.17193227	      5.88912727	      9.72962073	      0.16981392	     -1.27662830	      0.00000000	      0.00000000	    -31.86712317	     -2.01472051	     -9.69000625	      0.10672857	    -12.28387870	      2.75737664	     38.04736207	     74.69237968	      0.00000000	      0.00000000	     13.43218414	    -26.75184054	     26.68704829	     54.95554745	     74.13652206	      0.00000000	      0.00000000
      0.04800000	     16.02804835	      4.95433526	      4.04111379	      0.01165859	      0.95354133	     -0.36403025	     10.93735012	     -5.39260752	     -8.59377419	      9.83668106	      0.17168247	    -12.51646821	      0.00000000	      0.00000000	    -29.15409696	      7.22582540	      5.96220322	      9.92163019	      0.17316511	     -1.26094535	      0.00000000	      0.00000000	    -31.79497416	     -2.10418534	     -9.64363659	      0.01994090	    -12.29442752	      2.91049277	     38.24031312	     74.70362425	      0.00000000	      0.00000000	     13.53734893	    -26.73024872	     26.64100666	     55.00768544	     74.14461099	      0.00000000	      0.00000000
